<svg width="291" height="291" viewBox="0 0 291 291" fill="none" xmlns="http://www.w3.org/2000/svg">
<path d="M145.5 266.75C142.671 266.75 140.246 265.942 138.225 264.325C136.204 262.708 134.689 260.586 133.678 257.959C129.839 246.643 124.989 236.033 119.128 226.131C113.47 216.229 105.488 204.609 95.1813 191.272C84.875 177.934 76.4885 165.203 70.0219 153.078C63.7573 140.953 60.625 126.302 60.625 109.125C60.625 85.4812 68.8094 65.475 85.1781 49.1062C101.749 32.5354 121.856 24.25 145.5 24.25C169.144 24.25 189.15 32.5354 205.519 49.1062C222.09 65.475 230.375 85.4812 230.375 109.125C230.375 127.515 226.839 142.873 219.766 155.2C212.895 167.325 204.913 179.349 195.819 191.272C184.906 205.822 176.621 217.947 170.963 227.647C165.506 237.145 160.959 247.249 157.322 257.959C156.311 260.789 154.695 263.011 152.472 264.628C150.451 266.043 148.127 266.75 145.5 266.75ZM145.5 223.403C148.935 216.532 152.775 209.762 157.019 203.094C161.465 196.425 167.931 187.533 176.419 176.419C185.108 165.102 192.181 154.695 197.637 145.197C203.296 135.497 206.125 123.473 206.125 109.125C206.125 92.3521 200.164 78.1052 188.241 66.3844C176.52 54.4615 162.273 48.5 145.5 48.5C128.727 48.5 114.379 54.4615 102.456 66.3844C90.7354 78.1052 84.875 92.3521 84.875 109.125C84.875 123.473 87.6031 135.497 93.0594 145.197C98.7177 154.695 105.892 165.102 114.581 176.419C123.069 187.533 129.434 196.425 133.678 203.094C138.124 209.762 142.065 216.532 145.5 223.403ZM145.5 139.438C153.988 139.438 161.161 136.507 167.022 130.647C172.882 124.786 175.812 117.612 175.812 109.125C175.812 100.637 172.882 93.4635 167.022 87.6031C161.161 81.7427 153.988 78.8125 145.5 78.8125C137.013 78.8125 129.839 81.7427 123.978 87.6031C118.118 93.4635 115.188 100.637 115.188 109.125C115.188 117.612 118.118 124.786 123.978 130.647C129.839 136.507 137.013 139.438 145.5 139.438Z" fill="black"/>
<g clip-path="url(#clip0_141_5)">
<path d="M207.127 182.595C198.152 174.658 199.664 160.069 210.085 154.052C214.413 151.553 217.851 151.2 223.393 152.685C228.935 154.17 231.735 156.195 234.234 160.523C239.171 169.074 235.636 181.235 227.039 185.275C220.436 188.378 212.451 187.304 207.127 182.595ZM221.305 140.144C218.866 137.946 217.278 134.433 217.274 131.226C217.272 129.798 219.132 108.01 221.407 82.8095C223.682 57.6085 225.485 36.7915 225.412 36.5496C225.339 36.3076 225.472 34.2353 225.707 31.9445C226.985 19.4695 237.058 8.81388 249.764 6.49419C254.48 5.63333 255.165 5.69378 262.269 7.59728C269.373 9.50078 269.997 9.79105 273.65 12.8943C278.675 17.1629 282.52 23.7768 283.64 30.079C285.006 37.7657 283.761 43.9124 279.172 52.1371C278.446 53.4376 269.444 72.7374 259.167 95.0256C248.891 117.314 239.645 136.711 238.62 138.13C235.837 141.986 231.721 143.561 226.963 142.589C224.333 142.052 222.582 141.295 221.305 140.144Z" fill="url(#paint0_linear_141_5)"/>
</g>
<defs>
<linearGradient id="paint0_linear_141_5" x1="262.251" y1="7.59243" x2="214.335" y2="186.415" gradientUnits="userSpaceOnUse">
<stop stop-color="#FF0000"/>
<stop offset="1" stop-color="#FF9C5F"/>
</linearGradient>
<clipPath id="clip0_141_5">
<rect width="58.6698" height="185.131" fill="white" transform="translate(233.916) rotate(15)"/>
</clipPath>
</defs>
</svg>
