<svg width="291" height="291" viewBox="0 0 291 291" fill="none" xmlns="http://www.w3.org/2000/svg">
<path d="M145.5 266.75C142.671 266.75 140.246 265.942 138.225 264.325C136.204 262.708 134.689 260.586 133.678 257.959C129.839 246.643 124.989 236.033 119.128 226.131C113.47 216.229 105.488 204.609 95.1813 191.272C84.875 177.934 76.4885 165.203 70.0219 153.078C63.7573 140.953 60.625 126.302 60.625 109.125C60.625 85.4812 68.8094 65.475 85.1781 49.1062C101.749 32.5354 121.856 24.25 145.5 24.25C169.144 24.25 189.15 32.5354 205.519 49.1062C222.09 65.475 230.375 85.4812 230.375 109.125C230.375 127.515 226.839 142.873 219.766 155.2C212.895 167.325 204.913 179.349 195.819 191.272C184.906 205.822 176.621 217.947 170.963 227.647C165.506 237.145 160.959 247.249 157.322 257.959C156.311 260.789 154.695 263.011 152.472 264.628C150.451 266.043 148.127 266.75 145.5 266.75ZM145.5 223.403C148.935 216.532 152.775 209.762 157.019 203.094C161.465 196.425 167.931 187.533 176.419 176.419C185.108 165.102 192.181 154.695 197.637 145.197C203.296 135.497 206.125 123.473 206.125 109.125C206.125 92.3521 200.164 78.1052 188.241 66.3844C176.52 54.4615 162.273 48.5 145.5 48.5C128.727 48.5 114.379 54.4615 102.456 66.3844C90.7354 78.1052 84.875 92.3521 84.875 109.125C84.875 123.473 87.6031 135.497 93.0594 145.197C98.7177 154.695 105.892 165.102 114.581 176.419C123.069 187.533 129.434 196.425 133.678 203.094C138.124 209.762 142.065 216.532 145.5 223.403ZM145.5 139.438C153.988 139.438 161.161 136.507 167.022 130.647C172.882 124.786 175.812 117.612 175.812 109.125C175.812 100.637 172.882 93.4635 167.022 87.6031C161.161 81.7427 153.988 78.8125 145.5 78.8125C137.013 78.8125 129.839 81.7427 123.978 87.6031C118.118 93.4635 115.188 100.637 115.188 109.125C115.188 117.612 118.118 124.786 123.978 130.647C129.839 136.507 137.013 139.438 145.5 139.438Z" fill="black"/>
</svg>
